<svg width="40" height="61" viewBox="0 0 40 61" fill="none" xmlns="http://www.w3.org/2000/svg">
<path d="M39.9997 40.488C39.9997 27.781 39.9997 15.0466 39.9997 2.36712C39.9997 -0.789039 35.0379 -0.789039 35.0379 2.36712C35.0379 15.0741 35.0379 27.8085 35.0379 40.488C35.0379 48.6665 28.2742 55.3905 19.986 55.3905C11.6978 55.3905 4.93413 48.694 4.93413 40.488C4.93413 32.282 11.6978 25.5854 19.986 25.5854C23.0629 25.5854 25.5023 26.5186 27.0823 27.3145L29.4108 22.9782C27.3318 21.9353 24.0886 20.6728 20.0137 20.6728C8.95351 20.7003 0 29.5649 0 40.488C0 51.411 8.95351 60.2757 19.986 60.2757C31.0185 60.2757 40.0552 51.411 39.9997 40.488Z" fill="#1E7CBD"/>
<path d="M31.2692 14.9006C31.2692 17.8097 31.2692 20.7189 31.2692 23.6555C31.2692 28.3211 31.2692 32.9593 31.2692 37.6249C31.2692 38.6678 31.2692 39.793 31.2692 40.8359C31.2692 42.4003 33.7917 42.4552 33.7917 40.8359C33.7917 40.6438 33.7917 40.534 33.7917 40.3419C33.7917 38.7227 31.3523 38.7227 31.2692 40.3419C31.2692 44.3763 28.9962 48.1637 25.448 50.1397C21.8722 52.1432 17.3538 51.9511 13.9166 49.7829C10.4793 47.6148 8.53891 43.6902 8.73294 39.6833C8.92698 35.6489 11.4772 32.0536 15.1362 30.2422C19.7654 27.9917 25.4203 29.364 28.7467 33.1514C29.1902 33.6454 30.0495 33.5905 30.493 33.1514C30.992 32.6574 30.9365 31.9164 30.493 31.4224C26.9172 27.3331 20.9574 25.6589 15.6906 27.388C11.0614 28.9523 7.43011 32.9044 6.48764 37.6249C5.54516 42.4552 7.29151 47.5874 11.0891 50.771C14.9145 53.8722 20.2921 54.8602 24.9491 53.0214C30.2158 50.9631 33.6531 45.8858 33.7363 40.3145C32.9324 40.3145 32.1008 40.3145 31.2137 40.3145C31.2137 40.5066 31.2137 40.6164 31.2137 40.8085C31.2137 42.3728 33.7363 42.4277 33.7363 40.8085C33.7363 37.8993 33.7363 34.9902 33.7363 32.0536C33.7363 27.388 33.7363 22.7498 33.7363 18.0842C33.7363 17.0413 33.7363 15.916 33.7363 14.8731C33.7917 13.2813 31.2692 13.2813 31.2692 14.9006Z" fill="#1E7CBD"/>
</svg>
